<svg width="640" height="180" viewBox="0 0 640 180" fill="none" xmlns="http://www.w3.org/2000/svg" role="img" aria-labelledby="title desc">
  <title id="title">LegacyBridge Logo</title>
  <desc id="desc">A shield containing a bridge, family and legacy tree with LegacyBridge wordmark.</desc>
  <defs>
    <linearGradient id="gold" x1="70" y1="35" x2="135" y2="125" gradientUnits="userSpaceOnUse">
      <stop stop-color="#E4BE5C"/>
      <stop offset="1" stop-color="#B9841C"/>
    </linearGradient>
    <linearGradient id="navy" x1="28" y1="18" x2="148" y2="152" gradientUnits="userSpaceOnUse">
      <stop stop-color="#11263D"/>
      <stop offset="1" stop-color="#071423"/>
    </linearGradient>
  </defs>

  <g transform="translate(22 12)">
    <path d="M78 4L144 31V76C144 119 117 146 78 158C39 146 12 119 12 76V31L78 4Z" fill="white" stroke="url(#navy)" stroke-width="8" stroke-linejoin="round"/>
    <path d="M32 94C45 73 63 62 78 62C93 62 111 73 124 94" stroke="#0D1B2A" stroke-width="7" stroke-linecap="round"/>
    <path d="M36 95H120" stroke="#0D1B2A" stroke-width="6" stroke-linecap="round"/>
    <path d="M46 91V113M63 79V124M93 79V124M110 91V113" stroke="#0D1B2A" stroke-width="5" stroke-linecap="round"/>
    <path d="M78 72C78 57 78 42 78 33" stroke="url(#gold)" stroke-width="8" stroke-linecap="round"/>
    <path d="M78 58C64 50 56 42 50 33M78 58C92 50 100 42 106 33M77 44C66 37 59 31 54 23M79 44C90 37 97 31 102 23" stroke="url(#gold)" stroke-width="5" stroke-linecap="round"/>
    <g fill="url(#gold)">
      <ellipse cx="45" cy="30" rx="6" ry="10" transform="rotate(-40 45 30)"/>
      <ellipse cx="60" cy="22" rx="6" ry="10" transform="rotate(-22 60 22)"/>
      <ellipse cx="78" cy="19" rx="6" ry="10"/>
      <ellipse cx="96" cy="22" rx="6" ry="10" transform="rotate(22 96 22)"/>
      <ellipse cx="111" cy="30" rx="6" ry="10" transform="rotate(40 111 30)"/>
      <ellipse cx="54" cy="47" rx="5" ry="9" transform="rotate(-64 54 47)"/>
      <ellipse cx="102" cy="47" rx="5" ry="9" transform="rotate(64 102 47)"/>
      <ellipse cx="66" cy="37" rx="5" ry="8" transform="rotate(-40 66 37)"/>
      <ellipse cx="90" cy="37" rx="5" ry="8" transform="rotate(40 90 37)"/>
    </g>
    <g fill="#0D1B2A">
      <circle cx="59" cy="105" r="7"/>
      <path d="M48 132C50 119 52 112 59 112C66 112 69 119 71 132H48Z"/>
      <circle cx="97" cy="105" r="7"/>
      <path d="M86 132C88 119 90 112 97 112C104 112 107 119 109 132H86Z"/>
      <circle cx="78" cy="113" r="5"/>
      <path d="M69 134C71 124 73 119 78 119C83 119 86 124 88 134H69Z"/>
    </g>
  </g>

  <g transform="translate(198 44)">
    <text x="0" y="57" font-family="Georgia, 'Times New Roman', serif" font-size="56" font-weight="700" letter-spacing="-2" fill="#0D1B2A">Legacy</text>
    <text x="185" y="57" font-family="Georgia, 'Times New Roman', serif" font-size="56" font-weight="700" letter-spacing="-2" fill="#C79A2E">Bridge</text>
    <line x1="3" y1="83" x2="42" y2="83" stroke="#C79A2E" stroke-width="3" stroke-linecap="round"/>
    <text x="55" y="90" font-family="Inter, Arial, sans-serif" font-size="16" font-weight="600" letter-spacing="3" fill="#0D1B2A">YOUR LEGACY. THEIR TOMORROW.</text>
    <line x1="353" y1="83" x2="392" y2="83" stroke="#C79A2E" stroke-width="3" stroke-linecap="round"/>
  </g>
</svg>
